<svg width="35" height="34" viewBox="0 0 35 34" fill="none" xmlns="http://www.w3.org/2000/svg">
<path d="M20.4 0.559999C23.3067 0.559999 25.84 1.12 28 2.24C30.1867 3.36 31.8667 4.93333 33.04 6.96C34.2133 8.96 34.8 11.2667 34.8 13.88C34.8 15.96 34.4667 17.9467 33.8 19.84C33.16 21.7333 32.2133 23.28 30.96 24.48C29.7067 25.6533 28.2267 26.24 26.52 26.24C25.2133 26.24 24.2267 25.8933 23.56 25.2C22.8933 24.48 22.5333 23.4933 22.48 22.24C21.6533 23.4933 20.5867 24.48 19.28 25.2C18 25.8933 16.64 26.24 15.2 26.24C13.1733 26.24 11.5867 25.6267 10.44 24.4C9.32 23.1733 8.76 21.5067 8.76 19.4C8.76 17.4267 9.17333 15.5867 10 13.88C10.8267 12.1467 11.9733 10.76 13.44 9.72C14.9333 8.68 16.6133 8.16 18.48 8.16C19.8133 8.16 20.9333 8.45333 21.84 9.04C22.7467 9.6 23.4 10.4267 23.8 11.52L24.32 8.64H26.8L24.76 20.28C24.68 20.76 24.64 21.2133 24.64 21.64C24.64 23.4 25.4133 24.28 26.96 24.28C28.1067 24.28 29.0933 23.76 29.92 22.72C30.7467 21.68 31.3733 20.3733 31.8 18.8C32.2533 17.2 32.48 15.6133 32.48 14.04C32.48 11.6933 31.9867 9.66667 31 7.96C30.0133 6.22667 28.5867 4.90667 26.72 4C24.8533 3.06667 22.64 2.6 20.08 2.6C16.88 2.6 13.9867 3.38667 11.4 4.96C8.81333 6.53333 6.77333 8.66667 5.28 11.36C3.81333 14.0533 3.08 17.0267 3.08 20.28C3.05333 23.9333 4.14667 26.76 6.36 28.76C8.57333 30.76 11.6133 31.76 15.48 31.76C17.88 31.76 20.08 31.3067 22.08 30.4L22.48 32.36C20.16 33.32 17.6267 33.8 14.88 33.8C12.08 33.8 9.6 33.2533 7.44 32.16C5.30667 31.0933 3.65333 29.56 2.48 27.56C1.30667 25.56 0.72 23.2267 0.72 20.56C0.72 16.8533 1.56 13.48 3.24 10.44C4.94667 7.4 7.29333 5 10.28 3.24C13.2933 1.45333 16.6667 0.559999 20.4 0.559999ZM16.04 24.04C17.32 24.04 18.4933 23.68 19.56 22.96C20.6533 22.2133 21.52 21.1867 22.16 19.88C22.8 18.5467 23.12 17.0667 23.12 15.44C23.12 13.92 22.72 12.6933 21.92 11.76C21.12 10.8267 19.96 10.36 18.44 10.36C17.0533 10.36 15.8133 10.7733 14.72 11.6C13.6533 12.4267 12.8267 13.5067 12.24 14.84C11.68 16.1467 11.4 17.5333 11.4 19C11.4 20.5467 11.8 21.7733 12.6 22.68C13.4 23.5867 14.5467 24.04 16.04 24.04Z" fill="black"/>
</svg>
