<svg width="209" height="122" viewBox="0 0 209 122" fill="none" xmlns="http://www.w3.org/2000/svg">
<g filter="url(#filter0_d_1033_44)">
<rect x="8" y="4.33887" width="193" height="104.674" rx="52.3369" fill="#40B36E"/>
</g>
<path d="M54.5381 69.9622C55.1296 70.5484 55.4256 71.3646 55.3453 72.1883C55.1656 74.0343 54.7525 75.9554 54.2223 77.74C58.1458 76.8462 60.5422 75.8086 61.6316 75.264C62.2499 74.9549 62.9621 74.8822 63.6314 75.0597C65.4814 75.5504 67.4531 75.8167 69.5041 75.8176C80.7417 75.8223 89.1949 68.0284 89.1987 59.1619C89.2025 50.2955 80.756 42.4945 69.5183 42.4898C58.2807 42.4851 49.8275 50.279 49.8237 59.1455C49.822 63.2228 51.5565 67.0071 54.5381 69.9622ZM53.1469 80.8069C53.128 80.8106 53.109 80.8143 53.09 80.818C52.8317 80.8682 52.5684 80.9176 52.3001 80.966C51.9237 81.0339 51.5374 81.1 51.141 81.1639C50.5812 81.2541 50.153 80.6757 50.3743 80.16C50.5189 79.8231 50.6615 79.47 50.8004 79.1039C50.8886 78.8713 50.9754 78.6334 51.0602 78.3911C51.0639 78.3807 51.0675 78.3702 51.0712 78.3598C51.7688 76.3612 52.3372 74.0638 52.5458 71.9224C49.0971 68.5044 47.0091 64.0348 47.0112 59.1443C47.0158 48.4072 57.0931 39.7073 69.5195 39.7125C81.9459 39.7177 92.0158 48.426 92.0112 59.1631C92.0066 69.9002 81.9293 78.6001 69.5029 78.5949C67.2058 78.5939 64.9892 78.2956 62.9018 77.742C61.4405 78.4724 58.2927 79.802 53.1469 80.8069Z" fill="white"/>
<path d="M58.2642 52.2057C58.2645 51.4388 58.8944 50.8173 59.671 50.8177L79.3585 50.8259C80.1352 50.8262 80.7645 51.4482 80.7642 52.2151C80.7638 52.9821 80.134 53.6035 79.3573 53.6032L59.6698 53.595C58.8932 53.5946 58.2638 52.9727 58.2642 52.2057ZM58.2612 59.149C58.2615 58.3821 58.8914 57.7606 59.668 57.7609L79.3555 57.7692C80.1322 57.7695 80.7615 58.3915 80.7612 59.1584C80.7609 59.9253 80.131 60.5468 79.3544 60.5465L59.6669 60.5383C58.8902 60.5379 58.2609 59.9159 58.2612 59.149ZM58.2582 66.0923C58.2586 65.3254 58.8884 64.7039 59.6651 64.7042L70.9151 64.7089C71.6917 64.7092 72.3211 65.3312 72.3207 66.0982C72.3204 66.8651 71.6905 67.4866 70.9139 67.4862L59.6639 67.4815C58.8872 67.4812 58.2579 66.8592 58.2582 66.0923Z" fill="white"/>
<path d="M114.594 69.2637C112.958 69.2637 111.542 68.946 110.344 68.3105C109.146 67.6751 108.224 66.7012 107.578 65.3887C106.932 64.0762 106.609 62.4095 106.609 60.3887C106.609 58.2845 106.964 56.5658 107.672 55.2324C108.38 53.8991 109.359 52.9147 110.609 52.2793C111.87 51.6439 113.312 51.3262 114.938 51.3262C115.969 51.3262 116.901 51.4303 117.734 51.6387C118.578 51.8366 119.292 52.0814 119.875 52.373L118.781 55.3105C118.146 55.0501 117.495 54.8314 116.828 54.6543C116.161 54.4772 115.521 54.3887 114.906 54.3887C113.896 54.3887 113.052 54.6126 112.375 55.0605C111.708 55.5085 111.208 56.1751 110.875 57.0605C110.552 57.946 110.391 59.0449 110.391 60.3574C110.391 61.6283 110.557 62.7012 110.891 63.5762C111.224 64.4408 111.719 65.097 112.375 65.5449C113.031 65.9824 113.839 66.2012 114.797 66.2012C115.745 66.2012 116.594 66.0866 117.344 65.8574C118.094 65.6283 118.802 65.3314 119.469 64.9668V68.1543C118.812 68.5293 118.109 68.8053 117.359 68.9824C116.609 69.1699 115.688 69.2637 114.594 69.2637ZM127.203 44.6387V50.748C127.203 51.3835 127.182 52.0033 127.141 52.6074C127.109 53.2116 127.073 53.6803 127.031 54.0137H127.234C127.599 53.4095 128.047 52.9147 128.578 52.5293C129.109 52.1335 129.703 51.8366 130.359 51.6387C131.026 51.4408 131.734 51.3418 132.484 51.3418C133.807 51.3418 134.932 51.5658 135.859 52.0137C136.786 52.4512 137.495 53.1335 137.984 54.0605C138.484 54.9876 138.734 56.1908 138.734 57.6699V68.9512H135.062V58.3574C135.062 57.0137 134.786 56.0085 134.234 55.3418C133.682 54.6647 132.828 54.3262 131.672 54.3262C130.557 54.3262 129.672 54.5605 129.016 55.0293C128.37 55.4876 127.906 56.1699 127.625 57.0762C127.344 57.972 127.203 59.0658 127.203 60.3574V68.9512H123.531V44.6387H127.203ZM150.656 51.3262C152.844 51.3262 154.495 51.8105 155.609 52.7793C156.734 53.748 157.297 55.2585 157.297 57.3105V68.9512H154.688L153.984 66.498H153.859C153.37 67.123 152.865 67.6387 152.344 68.0449C151.823 68.4512 151.219 68.7533 150.531 68.9512C149.854 69.1595 149.026 69.2637 148.047 69.2637C147.016 69.2637 146.094 69.0762 145.281 68.7012C144.469 68.3158 143.828 67.7324 143.359 66.9512C142.891 66.1699 142.656 65.1803 142.656 63.9824C142.656 62.2012 143.318 60.8626 144.641 59.9668C145.974 59.071 147.984 58.5762 150.672 58.4824L153.672 58.373V57.4668C153.672 56.2689 153.391 55.4147 152.828 54.9043C152.276 54.3939 151.495 54.1387 150.484 54.1387C149.62 54.1387 148.781 54.2637 147.969 54.5137C147.156 54.7637 146.365 55.071 145.594 55.4355L144.406 52.8418C145.25 52.3939 146.208 52.0293 147.281 51.748C148.365 51.4668 149.49 51.3262 150.656 51.3262ZM153.656 60.6855L151.422 60.7637C149.589 60.8262 148.302 61.1387 147.562 61.7012C146.823 62.2637 146.453 63.0345 146.453 64.0137C146.453 64.8678 146.708 65.4928 147.219 65.8887C147.729 66.2741 148.401 66.4668 149.234 66.4668C150.505 66.4668 151.557 66.1074 152.391 65.3887C153.234 64.6595 153.656 63.5918 153.656 62.1855V60.6855ZM168.875 66.2949C169.354 66.2949 169.828 66.2533 170.297 66.1699C170.766 66.0762 171.193 65.9668 171.578 65.8418V68.623C171.172 68.8001 170.646 68.9512 170 69.0762C169.354 69.2012 168.682 69.2637 167.984 69.2637C167.005 69.2637 166.125 69.1022 165.344 68.7793C164.562 68.446 163.943 67.8783 163.484 67.0762C163.026 66.2741 162.797 65.1647 162.797 63.748V54.4512H160.438V52.8105L162.969 51.5137L164.172 47.8105H166.484V51.6543H171.438V54.4512H166.484V63.7012C166.484 64.5762 166.703 65.2272 167.141 65.6543C167.578 66.0814 168.156 66.2949 168.875 66.2949Z" fill="white"/>
<defs>
<filter id="filter0_d_1033_44" x="0" y="0.338867" width="209" height="120.674" filterUnits="userSpaceOnUse" color-interpolation-filters="sRGB">
<feFlood flood-opacity="0" result="BackgroundImageFix"/>
<feColorMatrix in="SourceAlpha" type="matrix" values="0 0 0 0 0 0 0 0 0 0 0 0 0 0 0 0 0 0 127 0" result="hardAlpha"/>
<feOffset dy="4"/>
<feGaussianBlur stdDeviation="4"/>
<feComposite in2="hardAlpha" operator="out"/>
<feColorMatrix type="matrix" values="0 0 0 0 0 0 0 0 0 0 0 0 0 0 0 0 0 0 0.25 0"/>
<feBlend mode="normal" in2="BackgroundImageFix" result="effect1_dropShadow_1033_44"/>
<feBlend mode="normal" in="SourceGraphic" in2="effect1_dropShadow_1033_44" result="shape"/>
</filter>
</defs>
</svg>
