<svg width="170" height="203" viewBox="0 0 170 203" fill="none" xmlns="http://www.w3.org/2000/svg">
<path d="M0.03125 152.248V11.423C0.03125 9.06748 0.948935 6.71199 2.7843 4.35649C4.61967 2.00099 6.52563 0.823242 8.50218 0.823242H118.413C120.53 0.823242 122.507 1.95893 124.342 4.2303C126.178 6.50168 127.095 8.89923 127.095 11.423V101.268C127.095 103.624 126.178 105.979 124.342 108.335C122.507 110.69 120.53 111.868 118.413 111.868H33.915L0.03125 152.248ZM42.5977 162.343C40.6211 162.343 38.6799 161.165 36.7739 158.81C34.868 156.454 33.915 154.099 33.915 151.743V127.011H139.802V41.2032H160.979C162.956 41.2032 164.861 42.381 166.697 44.7365C168.532 47.0919 169.45 49.5316 169.45 52.0553V202.471L135.778 162.343H42.5977ZM114.389 15.9657H12.7377V115.654L28.6207 96.7257H114.389V15.9657Z" fill="black"/>
</svg>
