<svg width="209" height="122" viewBox="0 0 209 122" fill="none" xmlns="http://www.w3.org/2000/svg">
<g filter="url(#filter0_d_110_139)">
<rect x="8" y="4" width="193" height="106" rx="53" fill="#40B36E"/>
</g>
<path d="M54.5381 70.4549C55.1296 71.0486 55.4256 71.8751 55.3453 72.7093C55.1656 74.5787 54.7525 76.5241 54.2223 78.3313C58.1458 77.4262 60.5422 76.3754 61.6316 75.824C62.2499 75.5109 62.9621 75.4373 63.6314 75.617C65.4814 76.1139 67.4531 76.3836 69.5041 76.3845C80.7417 76.3893 89.1949 68.4966 89.1987 59.5178C89.2025 50.5391 80.756 42.6393 69.5183 42.6345C58.2807 42.6298 49.8275 50.5224 49.8237 59.5012C49.822 63.6302 51.5565 67.4624 54.5381 70.4549ZM53.1469 81.4371C53.128 81.4408 53.109 81.4446 53.09 81.4483C52.8317 81.4991 52.5684 81.5491 52.3001 81.5981C51.9237 81.6669 51.5374 81.7338 51.141 81.7985C50.5812 81.8899 50.153 81.3042 50.3743 80.782C50.5189 80.4408 50.6615 80.0832 50.8004 79.7124C50.8886 79.4769 50.9754 79.236 51.0602 78.9907C51.0639 78.9801 51.0675 78.9695 51.0712 78.9589C51.7688 76.935 52.3372 74.6085 52.5458 72.44C49.0971 68.9787 47.0091 64.4524 47.0112 59.5C47.0158 48.6269 57.0931 39.8168 69.5195 39.822C81.9459 39.8273 92.0158 48.6459 92.0112 59.519C92.0066 70.3921 81.9293 79.2023 69.5029 79.197C67.2058 79.196 64.9892 78.8939 62.9018 78.3333C61.4405 79.073 58.2927 80.4194 53.1469 81.4371Z" fill="black"/>
<path d="M58.2642 52.4735C58.2645 51.6969 58.8944 51.0675 59.671 51.0679L79.3585 51.0762C80.1352 51.0765 80.7645 51.7064 80.7642 52.483C80.7638 53.2597 80.134 53.889 79.3573 53.8887L59.6698 53.8804C58.8932 53.88 58.2638 53.2502 58.2642 52.4735ZM58.2612 59.5048C58.2615 58.7281 58.8914 58.0988 59.668 58.0991L79.3555 58.1074C80.1322 58.1078 80.7615 58.7376 80.7612 59.5143C80.7609 60.2909 80.131 60.9203 79.3544 60.9199L59.6669 60.9116C58.8902 60.9113 58.2609 60.2814 58.2612 59.5048ZM58.2582 66.536C58.2586 65.7594 58.8884 65.13 59.6651 65.1304L70.9151 65.1351C71.6917 65.1354 72.3211 65.7653 72.3207 66.542C72.3204 67.3186 71.6905 67.9479 70.9139 67.9476L59.6639 67.9429C58.8872 67.9425 58.2579 67.3127 58.2582 66.536Z" fill="black"/>
<path d="M114.594 69.3125C112.958 69.3125 111.542 68.9948 110.344 68.3594C109.146 67.724 108.224 66.75 107.578 65.4375C106.932 64.125 106.609 62.4583 106.609 60.4375C106.609 58.3333 106.964 56.6146 107.672 55.2812C108.38 53.9479 109.359 52.9635 110.609 52.3281C111.87 51.6927 113.312 51.375 114.938 51.375C115.969 51.375 116.901 51.4792 117.734 51.6875C118.578 51.8854 119.292 52.1302 119.875 52.4219L118.781 55.3594C118.146 55.099 117.495 54.8802 116.828 54.7031C116.161 54.526 115.521 54.4375 114.906 54.4375C113.896 54.4375 113.052 54.6615 112.375 55.1094C111.708 55.5573 111.208 56.224 110.875 57.1094C110.552 57.9948 110.391 59.0938 110.391 60.4062C110.391 61.6771 110.557 62.75 110.891 63.625C111.224 64.4896 111.719 65.1458 112.375 65.5938C113.031 66.0312 113.839 66.25 114.797 66.25C115.745 66.25 116.594 66.1354 117.344 65.9062C118.094 65.6771 118.802 65.3802 119.469 65.0156V68.2031C118.812 68.5781 118.109 68.8542 117.359 69.0312C116.609 69.2188 115.688 69.3125 114.594 69.3125ZM127.203 44.6875V50.7969C127.203 51.4323 127.182 52.0521 127.141 52.6562C127.109 53.2604 127.073 53.7292 127.031 54.0625H127.234C127.599 53.4583 128.047 52.9635 128.578 52.5781C129.109 52.1823 129.703 51.8854 130.359 51.6875C131.026 51.4896 131.734 51.3906 132.484 51.3906C133.807 51.3906 134.932 51.6146 135.859 52.0625C136.786 52.5 137.495 53.1823 137.984 54.1094C138.484 55.0365 138.734 56.2396 138.734 57.7188V69H135.062V58.4062C135.062 57.0625 134.786 56.0573 134.234 55.3906C133.682 54.7135 132.828 54.375 131.672 54.375C130.557 54.375 129.672 54.6094 129.016 55.0781C128.37 55.5365 127.906 56.2188 127.625 57.125C127.344 58.0208 127.203 59.1146 127.203 60.4062V69H123.531V44.6875H127.203ZM150.656 51.375C152.844 51.375 154.495 51.8594 155.609 52.8281C156.734 53.7969 157.297 55.3073 157.297 57.3594V69H154.688L153.984 66.5469H153.859C153.37 67.1719 152.865 67.6875 152.344 68.0938C151.823 68.5 151.219 68.8021 150.531 69C149.854 69.2083 149.026 69.3125 148.047 69.3125C147.016 69.3125 146.094 69.125 145.281 68.75C144.469 68.3646 143.828 67.7812 143.359 67C142.891 66.2188 142.656 65.2292 142.656 64.0312C142.656 62.25 143.318 60.9115 144.641 60.0156C145.974 59.1198 147.984 58.625 150.672 58.5312L153.672 58.4219V57.5156C153.672 56.3177 153.391 55.4635 152.828 54.9531C152.276 54.4427 151.495 54.1875 150.484 54.1875C149.62 54.1875 148.781 54.3125 147.969 54.5625C147.156 54.8125 146.365 55.1198 145.594 55.4844L144.406 52.8906C145.25 52.4427 146.208 52.0781 147.281 51.7969C148.365 51.5156 149.49 51.375 150.656 51.375ZM153.656 60.7344L151.422 60.8125C149.589 60.875 148.302 61.1875 147.562 61.75C146.823 62.3125 146.453 63.0833 146.453 64.0625C146.453 64.9167 146.708 65.5417 147.219 65.9375C147.729 66.3229 148.401 66.5156 149.234 66.5156C150.505 66.5156 151.557 66.1562 152.391 65.4375C153.234 64.7083 153.656 63.6406 153.656 62.2344V60.7344ZM168.875 66.3438C169.354 66.3438 169.828 66.3021 170.297 66.2188C170.766 66.125 171.193 66.0156 171.578 65.8906V68.6719C171.172 68.849 170.646 69 170 69.125C169.354 69.25 168.682 69.3125 167.984 69.3125C167.005 69.3125 166.125 69.151 165.344 68.8281C164.562 68.4948 163.943 67.9271 163.484 67.125C163.026 66.3229 162.797 65.2135 162.797 63.7969V54.5H160.438V52.8594L162.969 51.5625L164.172 47.8594H166.484V51.7031H171.438V54.5H166.484V63.75C166.484 64.625 166.703 65.276 167.141 65.7031C167.578 66.1302 168.156 66.3438 168.875 66.3438Z" fill="black"/>
<defs>
<filter id="filter0_d_110_139" x="0" y="0" width="209" height="122" filterUnits="userSpaceOnUse" color-interpolation-filters="sRGB">
<feFlood flood-opacity="0" result="BackgroundImageFix"/>
<feColorMatrix in="SourceAlpha" type="matrix" values="0 0 0 0 0 0 0 0 0 0 0 0 0 0 0 0 0 0 127 0" result="hardAlpha"/>
<feOffset dy="4"/>
<feGaussianBlur stdDeviation="4"/>
<feComposite in2="hardAlpha" operator="out"/>
<feColorMatrix type="matrix" values="0 0 0 0 0 0 0 0 0 0 0 0 0 0 0 0 0 0 0.25 0"/>
<feBlend mode="normal" in2="BackgroundImageFix" result="effect1_dropShadow_110_139"/>
<feBlend mode="normal" in="SourceGraphic" in2="effect1_dropShadow_110_139" result="shape"/>
</filter>
</defs>
</svg>
