<svg width="36" height="42" viewBox="0 0 36 42" fill="none" xmlns="http://www.w3.org/2000/svg">
<path d="M3 42C2.175 42 1.46875 41.7062 0.88125 41.1188C0.29375 40.5312 0 39.825 0 39V17C0 16.175 0.29375 15.4688 0.88125 14.8813C1.46875 14.2937 2.175 14 3 14H13.5V17H3V39H33V17H22.5V14H33C33.825 14 34.5312 14.2937 35.1188 14.8813C35.7062 15.4688 36 16.175 36 17V39C36 39.825 35.7062 40.5312 35.1188 41.1188C34.5312 41.7062 33.825 42 33 42H3ZM18 31.85L9.9 23.75L12.05 21.6L16.5 26.05V0H19.5V26.05L23.95 21.6L26.1 23.75L18 31.85Z" fill="black"/>
</svg>
