<svg width="170" height="43" viewBox="0 0 170 43" fill="none" xmlns="http://www.w3.org/2000/svg">
<path fill-rule="evenodd" clip-rule="evenodd" d="M25.9669 0H25.9673C30.5964 0 34.3835 3.12872 34.3835 6.95271V35.9514C34.3835 39.7754 30.596 42.9038 25.9673 42.9038H25.9669C21.3379 42.9038 17.5508 39.7751 17.5508 35.9514V6.95271C17.5508 3.12872 21.3382 0 25.9669 0ZM32.6931 13.2659C32.8689 13.2659 33.0126 13.1472 33.0126 13.0019V6.14895C33.0235 5.93897 33.0264 5.72928 33.0126 5.52426V5.50938L33.0112 5.50734C32.9646 4.85407 32.7471 4.24512 32.0767 3.79512C31.3378 3.29904 30.309 3.28591 30.309 3.28591C32.3736 4.49418 32.267 5.40848 32.3736 5.61087V13.0019C32.3736 13.1472 32.5173 13.2659 32.6931 13.2659ZM32.6881 29.808C32.864 29.808 33.0077 29.9267 33.0077 30.0719V36.9249C33.0186 37.1349 33.0214 37.3446 33.0077 37.5496V37.5645L33.0062 37.5665C32.9596 38.2198 32.7422 38.8287 32.0717 39.2787C31.3328 39.7748 30.3041 39.7879 30.3041 39.7879C32.3686 38.5797 32.262 37.6654 32.3686 37.463V30.0719C32.3686 29.9267 32.5123 29.808 32.6881 29.808Z" fill="white"/>
<path fill-rule="evenodd" clip-rule="evenodd" d="M0 21.4514V21.4517C0 25.2757 3.78743 28.4041 8.41616 28.4041H43.5201C48.1492 28.4041 51.9367 25.2754 51.9367 21.4517V21.4514C51.9367 17.6274 48.1492 14.499 43.5201 14.499H8.41616C3.78708 14.499 0 17.6277 0 21.4514ZM16.0588 27.0078V27.0081C16.0588 27.1533 15.9151 27.2717 15.7393 27.2717H7.44353C7.18934 27.2807 6.9355 27.2831 6.68731 27.2717H6.66931L6.66684 27.2705C5.87602 27.232 5.13887 27.0524 4.59413 26.4986C3.99361 25.8882 3.97772 25.0383 3.97772 25.0383C5.44037 26.7438 6.54716 26.6558 6.79217 26.7438H15.7393C15.9151 26.7438 16.0588 26.8625 16.0588 27.0078ZM36.0833 27.0037C36.0833 27.1489 36.227 27.2676 36.4028 27.2676H44.6986C44.9528 27.2767 45.2066 27.279 45.4548 27.2676H45.4728L45.4753 27.2665C46.2661 27.228 47.0033 27.0483 47.548 26.4945C48.1485 25.8841 48.1644 25.0342 48.1644 25.0342C46.7018 26.7398 45.595 26.6517 45.35 26.7398H36.4028C36.227 26.7398 36.0833 26.8585 36.0833 27.0037Z" fill="#40B36E"/>
<path d="M63.8775 16.5713V18.8154H60.8307V28.0703H58.0297V18.8154H54.983V16.5713H63.8775Z" fill="white"/>
<path d="M73.2746 18.8318C74.323 18.8318 75.1638 19.1813 75.7972 19.8802C76.4306 20.5681 76.7473 21.5182 76.7473 22.7303V28.0703H73.9626V23.1071C73.9626 22.4955 73.8043 22.0205 73.4876 21.682C73.1709 21.3435 72.745 21.1742 72.2099 21.1742C71.6748 21.1742 71.249 21.3435 70.9323 21.682C70.6156 22.0205 70.4572 22.4955 70.4572 23.1071V28.0703H67.6562V15.9489H70.4572V20.1586C70.7412 19.7546 71.1288 19.4324 71.6202 19.1922C72.1116 18.9519 72.6631 18.8318 73.2746 18.8318Z" fill="white"/>
<path d="M88.4011 23.3528C88.4011 23.6149 88.3848 23.8879 88.352 24.1718H82.0128C82.0565 24.7397 82.2367 25.1765 82.5534 25.4822C82.881 25.7771 83.2796 25.9245 83.7491 25.9245C84.448 25.9245 84.934 25.6296 85.207 25.04H88.1882C88.0353 25.6406 87.7569 26.1811 87.3528 26.6616C86.9597 27.1421 86.4628 27.5188 85.8622 27.7918C85.2616 28.0649 84.59 28.2014 83.8474 28.2014C82.952 28.2014 82.1548 28.0103 81.4559 27.628C80.757 27.2458 80.211 26.6998 79.8179 25.99C79.4247 25.2802 79.2282 24.4503 79.2282 23.5002C79.2282 22.5502 79.4193 21.7202 79.8015 21.0104C80.1946 20.3006 80.7406 19.7546 81.4395 19.3724C82.1384 18.9902 82.941 18.7991 83.8474 18.7991C84.732 18.7991 85.5182 18.9847 86.2062 19.356C86.8942 19.7273 87.4293 20.2569 87.8115 20.9449C88.2046 21.6329 88.4011 22.4355 88.4011 23.3528ZM85.5346 22.6157C85.5346 22.1352 85.3708 21.753 85.0432 21.4691C84.7156 21.1851 84.3061 21.0432 83.8147 21.0432C83.3451 21.0432 82.9465 21.1797 82.6189 21.4527C82.3022 21.7257 82.1057 22.1133 82.0292 22.6157H85.5346Z" fill="white"/>
<path d="M93.9807 20.4535C94.3083 19.9511 94.7178 19.558 95.2092 19.2741C95.7006 18.9792 96.2466 18.8318 96.8472 18.8318V21.7967H96.0774C95.3785 21.7967 94.8543 21.9495 94.5048 22.2553C94.1554 22.5502 93.9807 23.0743 93.9807 23.8278V28.0703H91.1796V18.9301H93.9807V20.4535Z" fill="white"/>
<path d="M98.0797 23.4838C98.0797 22.5447 98.2545 21.7202 98.6039 21.0104C98.9643 20.3006 99.4502 19.7546 100.062 19.3724C100.673 18.9902 101.356 18.7991 102.109 18.7991C102.754 18.7991 103.316 18.9301 103.796 19.1922C104.288 19.4543 104.665 19.7983 104.927 20.2241V18.9301H107.728V28.0703H104.927V26.7763C104.654 27.2022 104.271 27.5461 103.78 27.8082C103.3 28.0703 102.737 28.2014 102.093 28.2014C101.35 28.2014 100.673 28.0103 100.062 27.628C99.4502 27.2349 98.9643 26.6834 98.6039 25.9736C98.2545 25.2529 98.0797 24.423 98.0797 23.4838ZM104.927 23.5002C104.927 22.8013 104.73 22.2498 104.337 21.8458C103.955 21.4417 103.485 21.2397 102.928 21.2397C102.371 21.2397 101.896 21.4417 101.503 21.8458C101.121 22.2389 100.93 22.7849 100.93 23.4838C100.93 24.1827 101.121 24.7397 101.503 25.1546C101.896 25.5587 102.371 25.7607 102.928 25.7607C103.485 25.7607 103.955 25.5587 104.337 25.1546C104.73 24.7506 104.927 24.1991 104.927 23.5002Z" fill="white"/>
<path d="M113.675 28.2014C112.878 28.2014 112.168 28.0649 111.546 27.7918C110.923 27.5188 110.432 27.1476 110.072 26.678C109.711 26.1975 109.509 25.6624 109.466 25.0727H112.234C112.267 25.3894 112.414 25.646 112.676 25.8426C112.938 26.0392 113.26 26.1374 113.643 26.1374C113.992 26.1374 114.26 26.0719 114.445 25.9409C114.642 25.7989 114.74 25.6187 114.74 25.4003C114.74 25.1382 114.604 24.9471 114.331 24.827C114.058 24.696 113.615 24.554 113.004 24.4011C112.349 24.2482 111.802 24.0899 111.366 23.9261C110.929 23.7514 110.552 23.4838 110.235 23.1235C109.919 22.7522 109.76 22.2553 109.76 21.6329C109.76 21.1087 109.902 20.6337 110.186 20.2078C110.481 19.771 110.907 19.427 111.464 19.1758C112.032 18.9246 112.703 18.7991 113.479 18.7991C114.625 18.7991 115.526 19.083 116.182 19.6508C116.848 20.2187 117.23 20.9722 117.328 21.9113H114.74C114.696 21.5946 114.554 21.3435 114.314 21.1578C114.085 20.9722 113.779 20.8794 113.397 20.8794C113.069 20.8794 112.818 20.9449 112.643 21.0759C112.469 21.196 112.381 21.3653 112.381 21.5837C112.381 21.8458 112.518 22.0424 112.791 22.1734C113.075 22.3044 113.512 22.4355 114.101 22.5665C114.778 22.7413 115.33 22.916 115.756 23.0907C116.182 23.2545 116.553 23.5275 116.869 23.9097C117.197 24.281 117.366 24.7833 117.377 25.4167C117.377 25.9518 117.224 26.4323 116.919 26.8582C116.624 27.2731 116.192 27.6007 115.625 27.841C115.068 28.0812 114.418 28.2014 113.675 28.2014Z" fill="white"/>
<path d="M132.996 18.9301L130.522 28.0703H127.426L125.985 22.1406L124.494 28.0703H121.415L118.925 18.9301H121.726L123.02 25.4658L124.56 18.9301H127.525L129.081 25.4331L130.358 18.9301H132.996Z" fill="white"/>
<path d="M138.713 17.98C138.222 17.98 137.818 17.8381 137.501 17.5542C137.195 17.2593 137.043 16.8989 137.043 16.4731C137.043 16.0363 137.195 15.6759 137.501 15.392C137.818 15.0971 138.222 14.9497 138.713 14.9497C139.194 14.9497 139.587 15.0971 139.893 15.392C140.209 15.6759 140.368 16.0363 140.368 16.4731C140.368 16.8989 140.209 17.2593 139.893 17.5542C139.587 17.8381 139.194 17.98 138.713 17.98ZM140.106 18.9301V28.0703H137.305V18.9301H140.106Z" fill="white"/>
<path d="M147.2 21.2561H145.693V28.0703H142.892V21.2561H141.876V18.9301H142.892V18.668C142.892 17.5432 143.214 16.6915 143.858 16.1127C144.502 15.523 145.447 15.2282 146.692 15.2282C146.899 15.2282 147.052 15.2336 147.151 15.2445V17.6197C146.615 17.5869 146.239 17.6634 146.02 17.849C145.802 18.0346 145.693 18.3677 145.693 18.8482V18.9301H147.2V21.2561Z" fill="white"/>
<path d="M155.68 25.6952V28.0703H154.255C153.24 28.0703 152.448 27.8246 151.88 27.3332C151.312 26.8309 151.028 26.0173 151.028 24.8925V21.2561H149.914V18.9301H151.028V16.7024H153.829V18.9301H155.664V21.2561H153.829V24.9253C153.829 25.1983 153.895 25.3949 154.026 25.515C154.157 25.6351 154.375 25.6952 154.681 25.6952H155.68Z" fill="white"/>
<path d="M160.911 26.1324C161.301 26.1324 161.623 26.1812 161.876 26.2787C162.132 26.374 162.322 26.5203 162.448 26.7175C162.574 26.9147 162.637 27.1661 162.637 27.4717C162.637 27.723 162.591 27.9332 162.5 28.1023C162.409 28.2691 162.29 28.4046 162.143 28.5086C161.995 28.6126 161.838 28.6928 161.671 28.7491L162.975 30.8848H162.331L161.167 28.9019H160.179V30.8848H159.627V26.1324H160.911ZM160.878 26.6102H160.179V28.4338H160.933C161.321 28.4338 161.606 28.3547 161.788 28.1965C161.973 28.0383 162.065 27.8054 162.065 27.4977C162.065 27.1748 161.967 26.9461 161.772 26.8118C161.579 26.6774 161.281 26.6102 160.878 26.6102ZM166.908 30.8848H166.281L164.997 28.7914L163.693 30.8848H163.105L164.688 28.4078L163.215 26.1324H163.83L165.016 28.0275L166.209 26.1324H166.794L165.325 28.3981L166.908 30.8848Z" fill="#40B36E"/>
</svg>
