<svg width="40" height="40" viewBox="0 0 40 40" fill="none" xmlns="http://www.w3.org/2000/svg">
<path d="M20 39.9998C31.0155 39.9998 40 31.0155 40 20C40 8.9843 31.0157 0 20 0C8.9843 0 0 8.9843 0 19.9999C0 31.0154 8.9843 39.9998 20 39.9998Z" fill="#FFD240"/>
<path d="M25.5159 30.0348V25.9316H14.9648V30.0348L20.2404 34.7242L25.5159 30.0348Z" fill="#FFD7A3"/>
<path fill-rule="evenodd" clip-rule="evenodd" d="M35.1493 33.0338C31.4767 37.2948 26.0441 39.9996 20.0001 39.9996C14.1234 39.9996 8.82488 37.4426 5.16016 33.3844C5.43432 32.6821 6.03928 32.1349 6.80779 31.9541L14.0612 30.2474C14.2673 30.1988 14.4487 30.0966 14.5949 29.959L20.2406 33.5517L26.1155 30.1247C26.2098 30.1778 26.3105 30.2216 26.4201 30.2473L33.6735 31.954C34.3086 32.1034 34.832 32.5031 35.1493 33.0338Z" fill="#8B63E7"/>
<path d="M14.9648 25.9317V30.2609C21.6106 32.6553 25.5159 26.6627 25.5159 26.6627V25.9316H14.9648V25.9317Z" fill="#F0C290"/>
<path d="M12.6211 12.4497L13.1319 23.6874C13.1796 24.7372 13.6943 25.7108 14.535 26.3413L16.9587 28.1591C17.5675 28.6156 18.3079 28.8625 19.069 28.8625H21.4137C22.1747 28.8625 22.9151 28.6157 23.5239 28.1591L25.9476 26.3413C26.7883 25.7107 27.3031 24.7373 27.3507 23.6874L27.8615 12.4497C27.8615 12.4497 12.6211 12.4497 12.6211 12.4497Z" fill="#FFE1B2"/>
<path fill-rule="evenodd" clip-rule="evenodd" d="M19.9683 39.9997H20.0305C20.5928 39.9989 21.1499 39.9746 21.7007 39.9278L21.3393 34.7241H19.1411L18.7773 39.9627C19.1714 39.9867 19.5685 39.9991 19.9683 39.9997Z" fill="#5B5D6E"/>
<path d="M21.7043 33.5518H18.7734V34.655C18.7734 35.0169 19.0668 35.3103 19.4288 35.3103H21.0489C21.4109 35.3103 21.7043 35.0169 21.7043 34.655V33.5518H21.7043Z" fill="#515262"/>
<path d="M14.8832 28.7296L20.2411 33.5517C20.2411 33.5517 18.7406 34.3092 16.8889 35.8359C16.5069 36.1508 15.9291 36.0232 15.7243 35.5725L13.207 30.0347L14.0034 28.8402C14.2015 28.5427 14.6175 28.4905 14.8832 28.7296Z" fill="white"/>
<path d="M25.6001 28.7296L20.2422 33.5517C20.2422 33.5517 21.7427 34.3092 23.5943 35.8359C23.9763 36.1508 24.5541 36.0232 24.759 35.5725L27.2762 30.0347L26.4799 28.8402C26.2817 28.5427 25.8657 28.4905 25.6001 28.7296Z" fill="white"/>
<path d="M23.793 8.56631L24.3425 12.4497C26.851 12.9514 27.2125 16.8881 27.2645 18.0125C27.274 18.2165 27.3391 18.4135 27.4498 18.5852L28.4069 20.0699C28.4069 20.0699 28.0793 17.6153 29.5792 15.9667C29.5793 15.9667 30.0943 6.22159 23.793 8.56631Z" fill="#4E1E30"/>
<path d="M28.9944 19.8201L28.3326 22.4671C28.2542 22.7809 27.9724 23.0009 27.6489 23.0009C27.2934 23.0009 26.9937 22.7363 26.9496 22.3836L26.6111 19.6762C26.5205 18.9515 27.0855 18.3115 27.8159 18.3115H27.8164C28.6063 18.3116 29.1859 19.0538 28.9944 19.8201Z" fill="#FFE1B2"/>
<path d="M13.1832 7.51605L14.0502 8.10832C10.1302 11.0025 10.8628 15.9667 10.8628 15.9667C12.0352 17.139 12.0352 20.0699 12.0352 20.0699L13.2075 18.8976C13.2075 18.8976 12.7551 15.511 14.966 14.2082C17.0176 12.9992 18.8127 13.6221 20.6445 13.6221C25.5537 13.6221 26.9276 11.7719 26.6894 9.51885C26.5662 8.35303 24.7837 5.92457 20.2416 6.0018C18.4085 6.03294 14.9661 6.58796 13.1832 7.51605Z" fill="#66273F"/>
<path d="M12.8412 13.1091C12.8412 13.1091 12.2184 10.6545 14.0502 8.1084C10.1302 11.0026 10.8628 15.9668 10.8628 15.9668C12.0352 17.1391 12.0352 20.07 12.0352 20.07L13.2075 18.8977C13.2075 18.8977 12.7551 15.5111 14.966 14.2083C17.0176 12.9993 18.8127 13.6221 20.6445 13.6221C21.4429 13.6221 22.1387 13.5687 22.7584 13.477C18.9777 13.6037 16.7491 10.74 12.8412 13.1091Z" fill="#4E1E30"/>
<path d="M11.4861 19.8201L12.1478 22.4671C12.2262 22.7809 12.5081 23.0009 12.8315 23.0009C13.187 23.0009 13.4867 22.7363 13.5308 22.3836L13.8693 19.6762C13.9599 18.9515 13.3949 18.3115 12.6646 18.3115H12.664C11.8741 18.3116 11.2945 19.0538 11.4861 19.8201Z" fill="#FFE1B2"/>
</svg>
