<svg width="134" height="47" viewBox="0 0 134 47" fill="none" xmlns="http://www.w3.org/2000/svg">
<path fill-rule="evenodd" clip-rule="evenodd" d="M20.4765 0H20.4768C24.1271 0 27.1134 3.40131 27.1134 7.55847V39.0837C27.1134 43.2408 24.1268 46.6418 20.4768 46.6418H20.4765C16.8262 46.6418 13.8398 43.2405 13.8398 39.0837V7.55847C13.8398 3.40131 16.8265 0 20.4765 0ZM25.7805 14.4216C25.9191 14.4216 26.0324 14.2926 26.0324 14.1347V6.68468C26.041 6.4564 26.0433 6.22844 26.0324 6.00556V5.98939L26.0313 5.98717C25.9945 5.27698 25.823 4.61497 25.2944 4.12577C24.7117 3.58647 23.9005 3.5722 23.9005 3.5722C25.5285 4.88574 25.4444 5.87969 25.5285 6.09972V14.1347C25.5285 14.2926 25.6418 14.4216 25.7805 14.4216ZM25.7766 32.405C25.9152 32.405 26.0285 32.534 26.0285 32.6919V40.142C26.0371 40.3702 26.0394 40.5982 26.0285 40.8211V40.8373L26.0274 40.8395C25.9906 41.5497 25.8192 42.2117 25.2905 42.7009C24.7078 43.2402 23.8966 43.2544 23.8966 43.2544C25.5246 41.9409 25.4405 40.947 25.5246 40.7269V32.6919C25.5246 32.534 25.6379 32.405 25.7766 32.405Z" fill="white"/>
<path fill-rule="evenodd" clip-rule="evenodd" d="M0 23.3199V23.3202C0 27.4773 2.98661 30.8783 6.63664 30.8783H34.3182C37.9685 30.8783 40.9551 27.477 40.9551 23.3202V23.3199C40.9551 19.1627 37.9685 15.7617 34.3182 15.7617H6.63664C2.98634 15.7617 0 19.163 0 23.3199ZM12.6633 29.3603V29.3606C12.6633 29.5185 12.55 29.6472 12.4114 29.6472H5.86967C5.66922 29.657 5.46906 29.6596 5.27335 29.6472H5.25915L5.2572 29.646C4.63359 29.6041 4.05231 29.4088 3.62275 28.8067C3.1492 28.1431 3.13667 27.2193 3.13667 27.2193C4.29006 29.0734 5.16282 28.9776 5.35603 29.0734H12.4114C12.55 29.0734 12.6633 29.2024 12.6633 29.3603ZM28.4538 29.3559C28.4538 29.5137 28.5672 29.6428 28.7058 29.6428H35.2475C35.4479 29.6526 35.6481 29.6551 35.8438 29.6428H35.858L35.86 29.6415C36.4836 29.5997 37.0649 29.4044 37.4944 28.8023C37.968 28.1387 37.9805 27.2148 37.9805 27.2148C36.8271 29.0689 35.9543 28.9732 35.7611 29.0689H28.7058C28.5672 29.0689 28.4538 29.198 28.4538 29.3559Z" fill="#40B36E"/>
<path d="M52.3345 17.4463V19.6904H49.2878V28.9453H46.4867V19.6904H43.44V17.4463H52.3345Z" fill="white"/>
<path d="M59.1848 19.7068C60.2331 19.7068 61.074 20.0563 61.7074 20.7552C62.3407 21.4431 62.6574 22.3932 62.6574 23.6053V28.9453H59.8728V23.9821C59.8728 23.3705 59.7144 22.8955 59.3977 22.557C59.0811 22.2185 58.6552 22.0492 58.1201 22.0492C57.585 22.0492 57.1591 22.2185 56.8424 22.557C56.5257 22.8955 56.3674 23.3705 56.3674 23.9821V28.9453H53.5664V16.8239H56.3674V21.0336C56.6513 20.6296 57.039 20.3074 57.5304 20.0672C58.0218 19.8269 58.5733 19.7068 59.1848 19.7068Z" fill="white"/>
<path d="M71.741 24.2278C71.741 24.4899 71.7246 24.7629 71.6919 25.0468H65.3527C65.3964 25.6147 65.5765 26.0515 65.8932 26.3572C66.2208 26.6521 66.6194 26.7995 67.089 26.7995C67.7879 26.7995 68.2738 26.5046 68.5468 25.915H71.528C71.3752 26.5156 71.0967 27.0561 70.6927 27.5366C70.2995 28.0171 69.8027 28.3938 69.202 28.6668C68.6014 28.9399 67.9298 29.0764 67.1873 29.0764C66.2918 29.0764 65.4946 28.8853 64.7957 28.503C64.0969 28.1208 63.5508 27.5748 63.1577 26.865C62.7646 26.1552 62.568 25.3253 62.568 24.3752C62.568 23.4252 62.7591 22.5952 63.1413 21.8854C63.5345 21.1756 64.0805 20.6296 64.7794 20.2474C65.4783 19.8652 66.2809 19.6741 67.1873 19.6741C68.0718 19.6741 68.8581 19.8597 69.546 20.231C70.234 20.6023 70.7691 21.1319 71.1513 21.8199C71.5444 22.5079 71.741 23.3105 71.741 24.2278ZM68.8744 23.4907C68.8744 23.0102 68.7106 22.628 68.383 22.3441C68.0554 22.0601 67.6459 21.9182 67.1545 21.9182C66.6849 21.9182 66.2864 22.0547 65.9587 22.3277C65.6421 22.6007 65.4455 22.9883 65.3691 23.4907H68.8744Z" fill="white"/>
<path d="M74.9182 21.3285C75.2458 20.8261 75.6553 20.433 76.1467 20.1491C76.6381 19.8542 77.1841 19.7068 77.7847 19.7068V22.6717H77.0149C76.316 22.6717 75.7918 22.8245 75.4423 23.1303C75.0929 23.4252 74.9182 23.9493 74.9182 24.7028V28.9453H72.1171V19.8051H74.9182V21.3285Z" fill="white"/>
<path d="M77.4352 24.3588C77.4352 23.4197 77.6099 22.5952 77.9594 21.8854C78.3197 21.1756 78.8057 20.6296 79.4172 20.2474C80.0288 19.8652 80.7113 19.6741 81.4648 19.6741C82.1091 19.6741 82.6714 19.8051 83.1519 20.0672C83.6433 20.3293 84.0201 20.6733 84.2822 21.0991V19.8051H87.0832V28.9453H84.2822V27.6513C84.0092 28.0772 83.627 28.4211 83.1356 28.6832C82.6551 28.9453 82.0927 29.0764 81.4484 29.0764C80.7058 29.0764 80.0288 28.8853 79.4172 28.503C78.8057 28.1099 78.3197 27.5584 77.9594 26.8486C77.6099 26.1279 77.4352 25.298 77.4352 24.3588ZM84.2822 24.3752C84.2822 23.6763 84.0856 23.1248 83.6925 22.7208C83.3103 22.3167 82.8407 22.1147 82.2838 22.1147C81.7269 22.1147 81.2518 22.3167 80.8587 22.7208C80.4765 23.1139 80.2854 23.6599 80.2854 24.3588C80.2854 25.0577 80.4765 25.6147 80.8587 26.0296C81.2518 26.4337 81.7269 26.6357 82.2838 26.6357C82.8407 26.6357 83.3103 26.4337 83.6925 26.0296C84.0856 25.6256 84.2822 25.0741 84.2822 24.3752Z" fill="white"/>
<path d="M90.6402 29.0764C89.843 29.0764 89.1332 28.9399 88.5107 28.6668C87.8883 28.3938 87.3969 28.0226 87.0365 27.553C86.6761 27.0725 86.4741 26.5374 86.4304 25.9477H89.1987C89.2315 26.2644 89.3789 26.521 89.641 26.7176C89.903 26.9142 90.2252 27.0124 90.6074 27.0124C90.9568 27.0124 91.2244 26.9469 91.41 26.8159C91.6066 26.6739 91.7049 26.4937 91.7049 26.2753C91.7049 26.0132 91.5684 25.8221 91.2954 25.702C91.0224 25.571 90.5801 25.429 89.9686 25.2761C89.3134 25.1232 88.7673 24.9649 88.3305 24.8011C87.8937 24.6264 87.517 24.3588 87.2003 23.9985C86.8836 23.6272 86.7253 23.1303 86.7253 22.5079C86.7253 21.9837 86.8672 21.5087 87.1512 21.0828C87.446 20.646 87.8719 20.302 88.4288 20.0508C88.9967 19.7996 89.6683 19.6741 90.4436 19.6741C91.5902 19.6741 92.4911 19.958 93.1463 20.5258C93.8125 21.0937 94.1947 21.8472 94.293 22.7863H91.7049C91.6612 22.4696 91.5192 22.2185 91.279 22.0328C91.0497 21.8472 90.7439 21.7544 90.3617 21.7544C90.0341 21.7544 89.7829 21.8199 89.6082 21.9509C89.4335 22.071 89.3461 22.2403 89.3461 22.4587C89.3461 22.7208 89.4826 22.9174 89.7556 23.0484C90.0395 23.1794 90.4764 23.3105 91.066 23.4415C91.7431 23.6163 92.2946 23.791 92.7205 23.9657C93.1463 24.1295 93.5176 24.4025 93.8343 24.7847C94.1619 25.156 94.3312 25.6583 94.3421 26.2917C94.3421 26.8268 94.1892 27.3073 93.8835 27.7332C93.5886 28.1481 93.1573 28.4757 92.5894 28.716C92.0325 28.9562 91.3827 29.0764 90.6402 29.0764Z" fill="white"/>
<path d="M107.863 19.8051L105.389 28.9453H102.293L100.852 23.0156L99.3614 28.9453H96.2819L93.7921 19.8051H96.5931L97.8872 26.3408L99.4269 19.8051H102.392L103.948 26.3081L105.226 19.8051H107.863Z" fill="white"/>
<path d="M109.901 18.855C109.409 18.855 109.005 18.7131 108.689 18.4292C108.383 18.1343 108.23 17.7739 108.23 17.3481C108.23 16.9113 108.383 16.5509 108.689 16.267C109.005 15.9721 109.409 15.8247 109.901 15.8247C110.381 15.8247 110.774 15.9721 111.08 16.267C111.397 16.5509 111.555 16.9113 111.555 17.3481C111.555 17.7739 111.397 18.1343 111.08 18.4292C110.774 18.7131 110.381 18.855 109.901 18.855ZM111.293 19.8051V28.9453H108.492V19.8051H111.293Z" fill="white"/>
<path d="M117.262 22.1311H115.755V28.9453H112.954V22.1311H111.939V19.8051H112.954V19.543C112.954 18.4182 113.276 17.5665 113.921 16.9877C114.565 16.398 115.51 16.1032 116.754 16.1032C116.962 16.1032 117.115 16.1086 117.213 16.1195V18.4947C116.678 18.4619 116.301 18.5384 116.083 18.724C115.864 18.9096 115.755 19.2427 115.755 19.7232V19.8051H117.262V22.1311Z" fill="white"/>
<path d="M124.055 26.5702V28.9453H122.63C121.615 28.9453 120.823 28.6996 120.255 28.2082C119.687 27.7059 119.403 26.8923 119.403 25.7675V22.1311H118.289V19.8051H119.403V17.5774H122.204V19.8051H124.039V22.1311H122.204V25.8003C122.204 26.0733 122.27 26.2699 122.401 26.39C122.532 26.5101 122.75 26.5702 123.056 26.5702H124.055Z" fill="white"/>
<path d="M126.508 28.2125C126.898 28.2125 127.22 28.2612 127.474 28.3588C127.729 28.4541 127.92 28.6004 128.046 28.7976C128.172 28.9948 128.234 29.2462 128.234 29.5517C128.234 29.8031 128.189 30.0133 128.098 30.1823C128.007 30.3492 127.888 30.4846 127.74 30.5887C127.593 30.6927 127.436 30.7729 127.269 30.8292L128.572 32.9648H127.929L126.765 30.982H125.777V32.9648H125.224V28.2125H126.508ZM126.476 28.6903H125.777V30.5139H126.531C126.919 30.5139 127.204 30.4348 127.386 30.2766C127.57 30.1184 127.662 29.8855 127.662 29.5777C127.662 29.2548 127.565 29.0262 127.37 28.8919C127.177 28.7575 126.879 28.6903 126.476 28.6903ZM132.506 32.9648H131.878L130.594 30.8715L129.291 32.9648H128.702L130.285 30.4879L128.813 28.2125H129.427L130.614 30.1076L131.807 28.2125H132.392L130.923 30.4781L132.506 32.9648Z" fill="#40B36E"/>
</svg>
