<svg width="148" height="53" viewBox="0 0 148 53" fill="none" xmlns="http://www.w3.org/2000/svg">
<path fill-rule="evenodd" clip-rule="evenodd" d="M22.7183 0.0644531H22.7186C26.7385 0.0644531 30.0272 3.92473 30.0272 8.64284V44.422C30.0272 49.1401 26.7382 53 22.7186 53H22.7183C18.6984 53 15.4097 49.1397 15.4097 44.422V8.64284C15.4097 3.92473 18.6987 0.0644531 22.7183 0.0644531ZM28.5593 16.4321C28.712 16.4321 28.8367 16.2857 28.8367 16.1065V7.65114C28.8462 7.39207 28.8487 7.13335 28.8367 6.88039V6.86204L28.8355 6.85952C28.795 6.05349 28.6062 5.30216 28.024 4.74694C27.3823 4.13487 26.4889 4.11868 26.4889 4.11868C28.2818 5.60946 28.1892 6.73753 28.2818 6.98726V16.1065C28.2818 16.2857 28.4066 16.4321 28.5593 16.4321ZM28.555 36.8421C28.7077 36.8421 28.8324 36.9886 28.8324 37.1678V45.6231C28.842 45.8822 28.8444 46.1409 28.8324 46.3938V46.4122L28.8312 46.4147C28.7908 47.2207 28.6019 47.9721 28.0197 48.5273C27.378 49.1394 26.4846 49.1556 26.4846 49.1556C28.2775 47.6648 28.1849 46.5367 28.2775 46.287V37.1678C28.2775 36.9886 28.4023 36.8421 28.555 36.8421Z" fill="black"/>
<path fill-rule="evenodd" clip-rule="evenodd" d="M0.166504 26.5311V26.5315C0.166504 31.2496 3.45552 35.1095 7.47512 35.1095H37.9595C41.9794 35.1095 45.2684 31.2493 45.2684 26.5315V26.5311C45.2684 21.813 41.9794 17.9531 37.9595 17.9531H7.47512C3.45521 17.9531 0.166504 21.8134 0.166504 26.5311ZM14.112 33.3867V33.387C14.112 33.5662 13.9872 33.7123 13.8345 33.7123H6.63048C6.40974 33.7235 6.18931 33.7263 5.97378 33.7123H5.95815L5.956 33.7109C5.26926 33.6634 4.62911 33.4417 4.15606 32.7584C3.63456 32.0053 3.62077 30.9567 3.62077 30.9567C4.89093 33.061 5.85207 32.9523 6.06484 33.061H13.8345C13.9872 33.061 14.112 33.2075 14.112 33.3867ZM31.5013 33.3816C31.5013 33.5608 31.6261 33.7073 31.7788 33.7073H38.9829C39.2036 33.7184 39.424 33.7213 39.6396 33.7073H39.6552L39.6573 33.7058C40.3441 33.6583 40.9842 33.4367 41.4573 32.7533C41.9788 32.0002 41.9926 30.9517 41.9926 30.9517C40.7224 33.056 39.7613 32.9473 39.5485 33.056H31.7788C31.6261 33.056 31.5013 33.2024 31.5013 33.3816Z" fill="#40B36E"/>
<path d="M56.8599 18.9903V21.2344H53.8132V30.4893H51.0121V21.2344H47.9654V18.9903H56.8599Z" fill="black"/>
<path d="M64.6726 21.2508C65.7209 21.2508 66.5618 21.6002 67.1952 22.2991C67.8285 22.9871 68.1452 23.9371 68.1452 25.1493V30.4893H65.3606V25.526C65.3606 24.9145 65.2022 24.4395 64.8855 24.1009C64.5689 23.7624 64.143 23.5931 63.6079 23.5931C63.0728 23.5931 62.6469 23.7624 62.3302 24.1009C62.0135 24.4395 61.8552 24.9145 61.8552 25.526V30.4893H59.0542V18.3678H61.8552V22.5776C62.1391 22.1735 62.5268 21.8514 63.0182 21.6111C63.5096 21.3709 64.0611 21.2508 64.6726 21.2508Z" fill="black"/>
<path d="M78.2 25.7717C78.2 26.0338 78.1836 26.3068 78.1508 26.5907H71.8117C71.8553 27.1586 72.0355 27.5954 72.3522 27.9012C72.6798 28.196 73.0784 28.3434 73.548 28.3434C74.2469 28.3434 74.7328 28.0486 75.0058 27.4589H77.987C77.8342 28.0595 77.5557 28.6001 77.1516 29.0806C76.7585 29.561 76.2616 29.9378 75.661 30.2108C75.0604 30.4838 74.3888 30.6203 73.6463 30.6203C72.7508 30.6203 71.9536 30.4292 71.2547 30.047C70.5558 29.6648 70.0098 29.1188 69.6167 28.409C69.2236 27.6991 69.027 26.8692 69.027 25.9192C69.027 24.9691 69.2181 24.1392 69.6003 23.4293C69.9934 22.7195 70.5395 22.1735 71.2383 21.7913C71.9372 21.4091 72.7399 21.218 73.6463 21.218C74.5308 21.218 75.317 21.4036 76.005 21.7749C76.693 22.1462 77.2281 22.6759 77.6103 23.3638C78.0034 24.0518 78.2 24.8544 78.2 25.7717ZM75.3334 25.0346C75.3334 24.5541 75.1696 24.1719 74.842 23.888C74.5144 23.6041 74.1049 23.4621 73.6135 23.4621C73.1439 23.4621 72.7453 23.5986 72.4177 23.8716C72.101 24.1446 71.9045 24.5323 71.828 25.0346H75.3334Z" fill="black"/>
<path d="M82.2819 22.8724C82.6095 22.3701 83.0191 21.977 83.5105 21.693C84.0019 21.3982 84.5479 21.2508 85.1485 21.2508V24.2156H84.3786C83.6797 24.2156 83.1556 24.3685 82.8061 24.6743C82.4567 24.9691 82.2819 25.4933 82.2819 26.2468V30.4893H79.4809V21.349H82.2819V22.8724Z" fill="black"/>
<path d="M85.3971 25.9028C85.3971 24.9636 85.5718 24.1392 85.9213 23.4293C86.2817 22.7195 86.7676 22.1735 87.3791 21.7913C87.9907 21.4091 88.6732 21.218 89.4267 21.218C90.071 21.218 90.6334 21.349 91.1139 21.6111C91.6053 21.8732 91.982 22.2172 92.2441 22.6431V21.349H95.0451V30.4893H92.2441V29.1952C91.9711 29.6211 91.5889 29.9651 91.0975 30.2272C90.617 30.4893 90.0546 30.6203 89.4103 30.6203C88.6677 30.6203 87.9907 30.4292 87.3791 30.047C86.7676 29.6539 86.2817 29.1024 85.9213 28.3926C85.5718 27.6718 85.3971 26.8419 85.3971 25.9028ZM92.2441 25.9192C92.2441 25.2203 92.0475 24.6688 91.6544 24.2647C91.2722 23.8607 90.8026 23.6587 90.2457 23.6587C89.6888 23.6587 89.2137 23.8607 88.8206 24.2647C88.4384 24.6579 88.2473 25.2039 88.2473 25.9028C88.2473 26.6017 88.4384 27.1586 88.8206 27.5736C89.2137 27.9776 89.6888 28.1796 90.2457 28.1796C90.8026 28.1796 91.2722 27.9776 91.6544 27.5736C92.0475 27.1695 92.2441 26.618 92.2441 25.9192Z" fill="black"/>
<path d="M99.5059 30.6203C98.7087 30.6203 97.9989 30.4838 97.3764 30.2108C96.754 29.9378 96.2626 29.5665 95.9022 29.0969C95.5418 28.6164 95.3398 28.0814 95.2961 27.4917H98.0644C98.0972 27.8083 98.2446 28.065 98.5067 28.2615C98.7688 28.4581 99.0909 28.5564 99.4731 28.5564C99.8226 28.5564 100.09 28.4909 100.276 28.3598C100.472 28.2179 100.571 28.0377 100.571 27.8193C100.571 27.5572 100.434 27.3661 100.161 27.246C99.8881 27.1149 99.4458 26.973 98.8343 26.8201C98.1791 26.6672 97.6331 26.5088 97.1963 26.345C96.7594 26.1703 96.3827 25.9028 96.066 25.5424C95.7493 25.1711 95.591 24.6743 95.591 24.0518C95.591 23.5276 95.733 23.0526 96.0169 22.6267C96.3117 22.1899 96.7376 21.8459 97.2945 21.5948C97.8624 21.3436 98.534 21.218 99.3093 21.218C100.456 21.218 101.357 21.5019 102.012 22.0698C102.678 22.6376 103.06 23.3911 103.159 24.3303H100.571C100.527 24.0136 100.385 23.7624 100.145 23.5768C99.9154 23.3911 99.6096 23.2983 99.2274 23.2983C98.8998 23.2983 98.6486 23.3638 98.4739 23.4949C98.2992 23.615 98.2118 23.7843 98.2118 24.0027C98.2118 24.2647 98.3483 24.4613 98.6213 24.5923C98.9053 24.7234 99.3421 24.8544 99.9318 24.9855C100.609 25.1602 101.16 25.3349 101.586 25.5096C102.012 25.6734 102.383 25.9465 102.7 26.3287C103.028 26.6999 103.197 27.2023 103.208 27.8356C103.208 28.3707 103.055 28.8512 102.749 29.2771C102.454 29.6921 102.023 30.0197 101.455 30.2599C100.898 30.5002 100.248 30.6203 99.5059 30.6203Z" fill="black"/>
<path d="M117.521 21.349L115.048 30.4893H111.952L110.51 24.5596L109.02 30.4893H105.94L103.45 21.349H106.251L107.545 27.8848L109.085 21.349H112.05L113.606 27.852L114.884 21.349H117.521Z" fill="black"/>
<path d="M120.945 20.399C120.454 20.399 120.05 20.257 119.733 19.9731C119.427 19.6783 119.274 19.3179 119.274 18.892C119.274 18.4552 119.427 18.0948 119.733 17.8109C120.05 17.5161 120.454 17.3686 120.945 17.3686C121.426 17.3686 121.819 17.5161 122.125 17.8109C122.441 18.0948 122.6 18.4552 122.6 18.892C122.6 19.3179 122.441 19.6783 122.125 19.9731C121.819 20.257 121.426 20.399 120.945 20.399ZM122.338 21.349V30.4893H119.537V21.349H122.338Z" fill="black"/>
<path d="M128.733 23.6751H127.226V30.4893H124.425V23.6751H123.41V21.349H124.425V21.087C124.425 19.9622 124.748 19.1104 125.392 18.5316C126.036 17.9419 126.981 17.6471 128.226 17.6471C128.433 17.6471 128.586 17.6526 128.684 17.6635V20.0386C128.149 20.0059 127.772 20.0823 127.554 20.2679C127.336 20.4536 127.226 20.7867 127.226 21.2671V21.349H128.733V23.6751Z" fill="black"/>
<path d="M136.165 28.1141V30.4893H134.74C133.724 30.4893 132.933 30.2436 132.365 29.7521C131.797 29.2498 131.513 28.4363 131.513 27.3115V23.6751H130.399V21.349H131.513V19.1213H134.314V21.349H136.149V23.6751H134.314V27.3442C134.314 27.6172 134.38 27.8138 134.511 27.9339C134.642 28.0541 134.86 28.1141 135.166 28.1141H136.165Z" fill="black"/>
<path d="M139.289 31.7818C139.679 31.7818 140.001 31.8306 140.255 31.9281C140.51 32.0235 140.701 32.1697 140.827 32.3669C140.952 32.5641 141.015 32.8155 141.015 33.1211C141.015 33.3724 140.97 33.5826 140.879 33.7517C140.788 33.9185 140.668 34.054 140.521 34.158C140.374 34.262 140.217 34.3422 140.05 34.3985L141.353 36.5342H140.71L139.546 34.5513H138.558V36.5342H138.005V31.7818H139.289ZM139.257 32.2597H138.558V34.0832H139.312C139.7 34.0832 139.985 34.0041 140.167 33.8459C140.351 33.6877 140.443 33.4548 140.443 33.1471C140.443 32.8242 140.346 32.5956 140.15 32.4612C139.958 32.3268 139.66 32.2597 139.257 32.2597ZM145.286 36.5342H144.659L143.375 34.4408L142.072 36.5342H141.483L143.066 34.0572L141.594 31.7818H142.208L143.395 33.6769L144.588 31.7818H145.173L143.703 34.0475L145.286 36.5342Z" fill="#40B36E"/>
</svg>
