<svg width="131" height="30" viewBox="0 0 131 30" fill="none" xmlns="http://www.w3.org/2000/svg">
<path fill-rule="evenodd" clip-rule="evenodd" d="M20.0588 0H20.059C23.6348 0 26.5602 2.18772 26.5602 4.8616V25.1386C26.5602 27.8125 23.6345 30 20.059 30H20.0588C16.483 30 13.5576 27.8123 13.5576 25.1386V4.8616C13.5576 2.18772 16.4833 0 20.0588 0ZM25.2544 9.276C25.3902 9.276 25.5012 9.193 25.5012 9.09144V4.29958C25.5097 4.15276 25.5119 4.00613 25.5012 3.86277V3.85237L25.5002 3.85094C25.4642 3.39415 25.2962 2.96835 24.7783 2.65369C24.2075 2.30681 23.4128 2.29764 23.4128 2.29764C25.0076 3.1425 24.9253 3.78182 25.0076 3.92334V9.09144C25.0076 9.193 25.1186 9.276 25.2544 9.276ZM25.2506 20.8429C25.3864 20.8429 25.4974 20.9259 25.4974 21.0275V25.8193C25.5059 25.9661 25.5081 26.1128 25.4974 26.2561V26.2665L25.4963 26.2679C25.4603 26.7247 25.2923 27.1505 24.7745 27.4652C24.2037 27.8121 23.409 27.8213 23.409 27.8213C25.0038 26.9764 24.9215 26.3371 25.0038 26.1956V21.0275C25.0038 20.9259 25.1148 20.8429 25.2506 20.8429Z" fill="white"/>
<path fill-rule="evenodd" clip-rule="evenodd" d="M0 15.0001V15.0003C0 17.6742 2.92564 19.8617 6.50114 19.8617H33.6176C37.1933 19.8617 40.119 17.6739 40.119 15.0003V15.0001C40.119 12.3262 37.1933 10.1387 33.6176 10.1387H6.50114C2.92536 10.1387 0 12.3264 0 15.0001ZM12.4048 18.8853V18.8855C12.4048 18.987 12.2938 19.0698 12.158 19.0698H5.74983C5.55347 19.0761 5.3574 19.0778 5.16568 19.0698H5.15177L5.14986 19.069C4.53899 19.0421 3.96957 18.9165 3.54878 18.5292C3.0849 18.1024 3.07263 17.5082 3.07263 17.5082C4.20247 18.7007 5.05741 18.6391 5.24668 18.7007H12.158C12.2938 18.7007 12.4048 18.7837 12.4048 18.8853ZM27.8729 18.8824C27.8729 18.984 27.9839 19.067 28.1197 19.067H34.5279C34.7242 19.0733 34.9203 19.0749 35.112 19.067H35.1259L35.1278 19.0661C35.7387 19.0392 36.3081 18.9136 36.7289 18.5264C37.1928 18.0995 37.2051 17.5053 37.2051 17.5053C36.0752 18.6979 35.2203 18.6363 35.031 18.6979H28.1197C27.9839 18.6979 27.8729 18.7809 27.8729 18.8824Z" fill="#40B36E"/>
<path d="M51.4566 13.542V15.7861H48.4098V25.041H45.6088V15.7861H42.5621V13.542H51.4566Z" fill="white"/>
<path d="M58.1125 15.8025C59.1609 15.8025 60.0017 16.152 60.6351 16.8509C61.2685 17.5388 61.5852 18.4889 61.5852 19.701V25.041H58.8005V20.0778C58.8005 19.4663 58.6422 18.9912 58.3255 18.6527C58.0088 18.3142 57.5829 18.1449 57.0478 18.1449C56.5127 18.1449 56.0868 18.3142 55.7702 18.6527C55.4535 18.9912 55.2951 19.4663 55.2951 20.0778V25.041H52.4941V12.9196H55.2951V17.1293C55.5791 16.7253 55.9667 16.4031 56.4581 16.1629C56.9495 15.9226 57.501 15.8025 58.1125 15.8025Z" fill="white"/>
<path d="M70.4763 20.3235C70.4763 20.5856 70.46 20.8586 70.4272 21.1425H64.088C64.1317 21.7104 64.3119 22.1472 64.6286 22.4529C64.9562 22.7478 65.3548 22.8952 65.8243 22.8952C66.5232 22.8952 67.0092 22.6004 67.2822 22.0107H70.2634C70.1105 22.6113 69.8321 23.1518 69.428 23.6323C69.0349 24.1128 68.538 24.4895 67.9374 24.7626C67.3368 25.0356 66.6652 25.1721 65.9226 25.1721C65.0272 25.1721 64.23 24.981 63.5311 24.5987C62.8322 24.2165 62.2862 23.6705 61.8931 22.9607C61.4999 22.2509 61.3034 21.421 61.3034 20.4709C61.3034 19.5209 61.4945 18.6909 61.8767 17.9811C62.2698 17.2713 62.8158 16.7253 63.5147 16.3431C64.2136 15.9609 65.0162 15.7698 65.9226 15.7698C66.8072 15.7698 67.5934 15.9554 68.2814 16.3267C68.9694 16.698 69.5044 17.2276 69.8867 17.9156C70.2798 18.6036 70.4763 19.4062 70.4763 20.3235ZM67.6098 19.5864C67.6098 19.1059 67.446 18.7237 67.1184 18.4398C66.7908 18.1558 66.3813 18.0139 65.8899 18.0139C65.4203 18.0139 65.0217 18.1504 64.6941 18.4234C64.3774 18.6964 64.1808 19.084 64.1044 19.5864H67.6098Z" fill="white"/>
<path d="M73.465 17.4242C73.7927 16.9218 74.2022 16.5287 74.6936 16.2448C75.185 15.9499 75.731 15.8025 76.3316 15.8025V18.7674H75.5617C74.8628 18.7674 74.3387 18.9202 73.9892 19.226C73.6398 19.5209 73.465 20.045 73.465 20.7985V25.041H70.664V15.9008H73.465V17.4242Z" fill="white"/>
<path d="M75.8659 20.4545C75.8659 19.5154 76.0406 18.6909 76.39 17.9811C76.7504 17.2713 77.2364 16.7253 77.8479 16.3431C78.4594 15.9609 79.1419 15.7698 79.8954 15.7698C80.5397 15.7698 81.1021 15.9008 81.5826 16.1629C82.074 16.425 82.4508 16.769 82.7128 17.1949V15.9008H85.5139V25.041H82.7128V23.747C82.4398 24.1729 82.0576 24.5168 81.5662 24.7789C81.0857 25.041 80.5233 25.1721 79.879 25.1721C79.1365 25.1721 78.4594 24.981 77.8479 24.5987C77.2364 24.2056 76.7504 23.6541 76.39 22.9443C76.0406 22.2236 75.8659 21.3937 75.8659 20.4545ZM82.7128 20.4709C82.7128 19.772 82.5163 19.2205 82.1232 18.8165C81.7409 18.4125 81.2714 18.2104 80.7144 18.2104C80.1575 18.2104 79.6825 18.4125 79.2894 18.8165C78.9072 19.2096 78.716 19.7556 78.716 20.4545C78.716 21.1534 78.9072 21.7104 79.2894 22.1253C79.6825 22.5294 80.1575 22.7314 80.7144 22.7314C81.2714 22.7314 81.7409 22.5294 82.1232 22.1253C82.5163 21.7213 82.7128 21.1698 82.7128 20.4709Z" fill="white"/>
<path d="M88.8872 25.1721C88.0901 25.1721 87.3802 25.0356 86.7578 24.7626C86.1353 24.4895 85.6439 24.1183 85.2836 23.6487C84.9232 23.1682 84.7212 22.6331 84.6775 22.0434H87.4458C87.4785 22.3601 87.6259 22.6167 87.888 22.8133C88.1501 23.0099 88.4723 23.1081 88.8545 23.1081C89.2039 23.1081 89.4715 23.0426 89.6571 22.9116C89.8537 22.7696 89.9519 22.5894 89.9519 22.371C89.9519 22.1089 89.8154 21.9178 89.5424 21.7977C89.2694 21.6667 88.8272 21.5247 88.2156 21.3718C87.5604 21.2189 87.0144 21.0606 86.5776 20.8968C86.1408 20.7221 85.7641 20.4545 85.4474 20.0942C85.1307 19.7229 84.9723 19.226 84.9723 18.6036C84.9723 18.0794 85.1143 17.6044 85.3982 17.1785C85.6931 16.7417 86.119 16.3977 86.6759 16.1465C87.2437 15.8953 87.9153 15.7698 88.6907 15.7698C89.8373 15.7698 90.7382 16.0537 91.3934 16.6215C92.0595 17.1894 92.4418 17.9429 92.54 18.882H89.9519C89.9083 18.5653 89.7663 18.3142 89.5261 18.1285C89.2967 17.9429 88.991 17.8501 88.6088 17.8501C88.2812 17.8501 88.03 17.9156 87.8553 18.0466C87.6805 18.1667 87.5932 18.336 87.5932 18.5544C87.5932 18.8165 87.7297 19.0131 88.0027 19.1441C88.2866 19.2751 88.7234 19.4062 89.3131 19.5372C89.9902 19.712 90.5416 19.8867 90.9675 20.0614C91.3934 20.2252 91.7647 20.4982 92.0814 20.8804C92.409 21.2517 92.5783 21.754 92.5892 22.3874C92.5892 22.9225 92.4363 23.403 92.1305 23.8289C91.8357 24.2438 91.4043 24.5714 90.8365 24.8117C90.2796 25.0519 89.6298 25.1721 88.8872 25.1721Z" fill="white"/>
<path d="M105.95 15.9008L103.476 25.041H100.38L98.9389 19.1113L97.4483 25.041H94.3688L91.879 15.9008H94.68L95.9741 22.4365L97.5138 15.9008H100.479L102.035 22.4038L103.312 15.9008H105.95Z" fill="white"/>
<path d="M107.703 14.9507C107.211 14.9507 106.807 14.8088 106.49 14.5249C106.185 14.23 106.032 13.8696 106.032 13.4438C106.032 13.007 106.185 12.6466 106.49 12.3627C106.807 12.0678 107.211 11.9204 107.703 11.9204C108.183 11.9204 108.576 12.0678 108.882 12.3627C109.199 12.6466 109.357 13.007 109.357 13.4438C109.357 13.8696 109.199 14.23 108.882 14.5249C108.576 14.8088 108.183 14.9507 107.703 14.9507ZM109.095 15.9008V25.041H106.294V15.9008H109.095Z" fill="white"/>
<path d="M114.982 18.2268H113.475V25.041H110.674V18.2268H109.658V15.9008H110.674V15.6387C110.674 14.5139 110.996 13.6622 111.64 13.0834C112.285 12.4937 113.229 12.1989 114.474 12.1989C114.682 12.1989 114.835 12.2043 114.933 12.2152V14.5904C114.398 14.5576 114.021 14.6341 113.803 14.8197C113.584 15.0053 113.475 15.3384 113.475 15.8189V15.9008H114.982V18.2268Z" fill="white"/>
<path d="M121.648 22.6659V25.041H120.223C119.207 25.041 118.416 24.7953 117.848 24.3039C117.28 23.8016 116.996 22.988 116.996 21.8632V18.2268H115.882V15.9008H116.996V13.6731H119.797V15.9008H121.632V18.2268H119.797V21.896C119.797 22.169 119.862 22.3656 119.994 22.4857C120.125 22.6058 120.343 22.6659 120.649 22.6659H121.648Z" fill="white"/>
<path d="M123.964 18.9488C124.354 18.9488 124.676 18.9976 124.93 19.0951C125.186 19.1904 125.376 19.3367 125.502 19.5339C125.628 19.7311 125.69 19.9825 125.69 20.2881C125.69 20.5394 125.645 20.7496 125.554 20.9187C125.463 21.0855 125.344 21.221 125.196 21.325C125.049 21.429 124.892 21.5092 124.725 21.5655L126.028 23.7012H125.385L124.221 21.7183H123.233V23.7012H122.68V18.9488H123.964ZM123.932 19.4267H123.233V21.2502H123.987C124.375 21.2502 124.66 21.1711 124.842 21.0129C125.026 20.8547 125.118 20.6218 125.118 20.3141C125.118 19.9912 125.021 19.7625 124.826 19.6282C124.633 19.4938 124.335 19.4267 123.932 19.4267ZM129.962 23.7012H129.334L128.05 21.6078L126.747 23.7012H126.159L127.742 21.2242L126.269 18.9488H126.883L128.07 20.8439L129.263 18.9488H129.848L128.379 21.2145L129.962 23.7012Z" fill="#40B36E"/>
</svg>
